<svg t="1689302745432" class="icon" viewBox="0 0 1024 1024" version="1.1" xmlns="http://www.w3.org/2000/svg" p-id="970" width="200" height="200"><path d="M89.8048 92.3136m236.032 0l372.2752 0q236.032 0 236.032 236.032l0 372.2752q0 236.032-236.032 236.032l-372.2752 0q-236.032 0-236.032-236.032l0-372.2752q0-236.032 236.032-236.032Z" fill="#FF6155" p-id="971"></path><path d="M303.1552 326.2976a366.336 366.336 0 0 0-213.3504 68.2496v306.0736a236.032 236.032 0 0 0 236.032 236.032h253.952a367.8208 367.8208 0 0 0-276.48-610.3552z" fill="#FC7C71" p-id="972"></path><path d="M519.936 338.9952v421.12h264.6528V423.0656a84.0704 84.0704 0 0 0-84.0704-84.0704z m167.0656 300.1856H619.52v-67.5328h67.584z m0-125.6448H619.52V446.0032h67.584z" fill="#FDC1BC" p-id="973"></path><path d="M792.8832 723.4048H568.832V270.7456a57.9584 57.9584 0 0 0-57.9584-57.9584H298.7008A57.9584 57.9584 0 0 0 240.64 270.7456v452.6592h-7.6288a38.2464 38.2464 0 0 0-38.7584 36.096 37.2736 37.2736 0 0 0 37.2224 38.3488h563.2a37.2736 37.2736 0 0 0 37.2224-38.3488 38.2464 38.2464 0 0 0-39.0144-36.096zM321.1776 321.2288h164.8128v67.584H321.1776z m16.2304 173.5168h95.3344L430.08 491.52a22.9888 22.9888 0 1 1 35.84-28.6208l32.3584 40.96a23.04 23.04 0 0 1-18.0224 37.376H337.408a23.04 23.04 0 0 1 0-46.08z m143.0528 121.0368H385.1264l2.6624 3.328a23.04 23.04 0 0 1-35.84 28.672l-32.3072-40.96a23.04 23.04 0 0 1 18.0224-37.376h142.7968a23.04 23.04 0 0 1 0 46.08z" fill="#FFFFFF" p-id="974"></path></svg>